<mxfile host="Electron" modified="2024-02-15T13:04:55.163Z" agent="Mozilla/5.0 (Windows NT 10.0; Win64; x64) AppleWebKit/537.36 (KHTML, like Gecko) draw.io/23.0.2 Chrome/120.0.6099.109 Electron/28.1.0 Safari/537.36" etag="xUGVGnMy2YoKc1y-vbIn" version="23.0.2" type="device" pages="3">
  <diagram name="ex1" id="b-XkX5qP2fZ_xCLN-yhR">
    <mxGraphModel dx="834" dy="1676" grid="1" gridSize="10" guides="1" tooltips="1" connect="1" arrows="1" fold="1" page="1" pageScale="1" pageWidth="827" pageHeight="1169" math="0" shadow="0">
      <root>
        <mxCell id="0" />
        <mxCell id="1" parent="0" />
        <mxCell id="CM93kpVTs5e6VY5oIbFe-1" value="" style="ellipse;html=1;shape=startState;fillColor=#000000;strokeColor=#ff0000;" vertex="1" parent="1">
          <mxGeometry x="220" y="90" width="30" height="30" as="geometry" />
        </mxCell>
        <mxCell id="CM93kpVTs5e6VY5oIbFe-2" value="" style="edgeStyle=orthogonalEdgeStyle;html=1;verticalAlign=bottom;endArrow=open;endSize=8;strokeColor=#ff0000;rounded=0;" edge="1" source="CM93kpVTs5e6VY5oIbFe-1" parent="1">
          <mxGeometry relative="1" as="geometry">
            <mxPoint x="235" y="150" as="targetPoint" />
          </mxGeometry>
        </mxCell>
        <mxCell id="CM93kpVTs5e6VY5oIbFe-3" value="Submissão formulário" style="rounded=1;whiteSpace=wrap;html=1;arcSize=40;fontColor=#000000;fillColor=#ffffc0;strokeColor=#ff0000;" vertex="1" parent="1">
          <mxGeometry x="175" y="150" width="120" height="40" as="geometry" />
        </mxCell>
        <mxCell id="CM93kpVTs5e6VY5oIbFe-4" value="" style="edgeStyle=orthogonalEdgeStyle;html=1;verticalAlign=bottom;endArrow=open;endSize=8;strokeColor=#ff0000;rounded=0;" edge="1" source="CM93kpVTs5e6VY5oIbFe-5" parent="1">
          <mxGeometry relative="1" as="geometry">
            <mxPoint x="235" y="250" as="targetPoint" />
          </mxGeometry>
        </mxCell>
        <mxCell id="CM93kpVTs5e6VY5oIbFe-6" value="" style="edgeStyle=orthogonalEdgeStyle;html=1;verticalAlign=bottom;endArrow=open;endSize=8;strokeColor=#ff0000;rounded=0;entryX=0.5;entryY=0;entryDx=0;entryDy=0;" edge="1" source="CM93kpVTs5e6VY5oIbFe-5" parent="1" target="CM93kpVTs5e6VY5oIbFe-7">
          <mxGeometry relative="1" as="geometry">
            <mxPoint x="235" y="350" as="targetPoint" />
          </mxGeometry>
        </mxCell>
        <mxCell id="CM93kpVTs5e6VY5oIbFe-7" value="Exame médico" style="rounded=1;whiteSpace=wrap;html=1;arcSize=40;fontColor=#000000;fillColor=#ffffc0;strokeColor=#ff0000;" vertex="1" parent="1">
          <mxGeometry x="175" y="290" width="120" height="40" as="geometry" />
        </mxCell>
        <mxCell id="CM93kpVTs5e6VY5oIbFe-17" value="" style="edgeStyle=orthogonalEdgeStyle;html=1;verticalAlign=bottom;endArrow=open;endSize=8;strokeColor=#ff0000;rounded=0;" edge="1" source="CM93kpVTs5e6VY5oIbFe-20" parent="1">
          <mxGeometry relative="1" as="geometry">
            <mxPoint x="235" y="650" as="targetPoint" />
          </mxGeometry>
        </mxCell>
        <mxCell id="CM93kpVTs5e6VY5oIbFe-19" value="" style="edgeStyle=orthogonalEdgeStyle;html=1;verticalAlign=bottom;endArrow=open;endSize=8;strokeColor=#ff0000;rounded=0;entryX=0.5;entryY=0;entryDx=0;entryDy=0;" edge="1" source="CM93kpVTs5e6VY5oIbFe-18" parent="1" target="CM93kpVTs5e6VY5oIbFe-20">
          <mxGeometry relative="1" as="geometry">
            <mxPoint x="235" y="740" as="targetPoint" />
          </mxGeometry>
        </mxCell>
        <mxCell id="CM93kpVTs5e6VY5oIbFe-23" value="" style="edgeStyle=orthogonalEdgeStyle;html=1;verticalAlign=bottom;endArrow=open;endSize=8;strokeColor=#ff0000;rounded=0;" edge="1" parent="1" source="CM93kpVTs5e6VY5oIbFe-3" target="CM93kpVTs5e6VY5oIbFe-5">
          <mxGeometry relative="1" as="geometry">
            <mxPoint x="235" y="250" as="targetPoint" />
            <mxPoint x="235" y="190" as="sourcePoint" />
          </mxGeometry>
        </mxCell>
        <mxCell id="CM93kpVTs5e6VY5oIbFe-5" value="Pagamento da taxa" style="rounded=1;whiteSpace=wrap;html=1;arcSize=40;fontColor=#000000;fillColor=#ffffc0;strokeColor=#ff0000;" vertex="1" parent="1">
          <mxGeometry x="175" y="220" width="120" height="40" as="geometry" />
        </mxCell>
        <mxCell id="CM93kpVTs5e6VY5oIbFe-24" value="" style="edgeStyle=orthogonalEdgeStyle;html=1;verticalAlign=bottom;endArrow=open;endSize=8;strokeColor=#ff0000;rounded=0;" edge="1" parent="1" source="CM93kpVTs5e6VY5oIbFe-7">
          <mxGeometry relative="1" as="geometry">
            <mxPoint x="235" y="370" as="targetPoint" />
            <mxPoint x="235" y="330" as="sourcePoint" />
          </mxGeometry>
        </mxCell>
        <mxCell id="CM93kpVTs5e6VY5oIbFe-16" value="avaliação fisíco-motora" style="rounded=1;whiteSpace=wrap;html=1;arcSize=40;fontColor=#000000;fillColor=#ffffc0;strokeColor=#ff0000;" vertex="1" parent="1">
          <mxGeometry x="176" y="450" width="120" height="40" as="geometry" />
        </mxCell>
        <mxCell id="CM93kpVTs5e6VY5oIbFe-26" value="" style="edgeStyle=orthogonalEdgeStyle;html=1;verticalAlign=bottom;endArrow=open;endSize=8;strokeColor=#ff0000;rounded=0;" edge="1" parent="1" source="CM93kpVTs5e6VY5oIbFe-16" target="CM93kpVTs5e6VY5oIbFe-18">
          <mxGeometry relative="1" as="geometry">
            <mxPoint x="235" y="650" as="targetPoint" />
            <mxPoint x="236" y="490" as="sourcePoint" />
          </mxGeometry>
        </mxCell>
        <mxCell id="CM93kpVTs5e6VY5oIbFe-18" value="Programa personalizado de treino" style="rounded=1;whiteSpace=wrap;html=1;arcSize=40;fontColor=#000000;fillColor=#ffffc0;strokeColor=#ff0000;" vertex="1" parent="1">
          <mxGeometry x="175" y="550" width="120" height="40" as="geometry" />
        </mxCell>
        <mxCell id="CM93kpVTs5e6VY5oIbFe-28" value="" style="edgeStyle=orthogonalEdgeStyle;html=1;verticalAlign=bottom;endArrow=open;endSize=8;strokeColor=#ff0000;rounded=0;" edge="1" parent="1" source="CM93kpVTs5e6VY5oIbFe-20" target="CM93kpVTs5e6VY5oIbFe-22">
          <mxGeometry relative="1" as="geometry">
            <mxPoint x="236" y="840" as="targetPoint" />
            <mxPoint x="235" y="690" as="sourcePoint" />
          </mxGeometry>
        </mxCell>
        <mxCell id="CM93kpVTs5e6VY5oIbFe-22" value="" style="ellipse;html=1;shape=endState;fillColor=#000000;strokeColor=#ff0000;" vertex="1" parent="1">
          <mxGeometry x="220" y="690" width="30" height="30" as="geometry" />
        </mxCell>
        <mxCell id="CM93kpVTs5e6VY5oIbFe-12" value="" style="ellipse;html=1;shape=endState;fillColor=#000000;strokeColor=#ff0000;" vertex="1" parent="1">
          <mxGeometry x="330" y="375" width="30" height="30" as="geometry" />
        </mxCell>
        <mxCell id="CM93kpVTs5e6VY5oIbFe-30" value="" style="edgeStyle=orthogonalEdgeStyle;html=1;verticalAlign=bottom;endArrow=open;endSize=8;strokeColor=#ff0000;rounded=0;" edge="1" parent="1" source="CM93kpVTs5e6VY5oIbFe-18" target="CM93kpVTs5e6VY5oIbFe-20">
          <mxGeometry relative="1" as="geometry">
            <mxPoint x="235" y="650" as="targetPoint" />
            <mxPoint x="235" y="590" as="sourcePoint" />
          </mxGeometry>
        </mxCell>
        <mxCell id="CM93kpVTs5e6VY5oIbFe-20" value="Valor matrícula" style="rounded=1;whiteSpace=wrap;html=1;arcSize=40;fontColor=#000000;fillColor=#ffffc0;strokeColor=#ff0000;" vertex="1" parent="1">
          <mxGeometry x="175" y="620" width="120" height="40" as="geometry" />
        </mxCell>
        <mxCell id="zmEaGUUcTGZCiLy6iSV4-1" value="" style="rhombus;whiteSpace=wrap;html=1;fontColor=#000000;fillColor=#ffffc0;strokeColor=#ff0000;" vertex="1" parent="1">
          <mxGeometry x="196" y="370" width="80" height="40" as="geometry" />
        </mxCell>
        <mxCell id="zmEaGUUcTGZCiLy6iSV4-2" value="negativo" style="edgeStyle=orthogonalEdgeStyle;html=1;align=left;verticalAlign=bottom;endArrow=open;endSize=8;strokeColor=#ff0000;rounded=0;entryX=0;entryY=0.5;entryDx=0;entryDy=0;" edge="1" source="zmEaGUUcTGZCiLy6iSV4-1" parent="1" target="CM93kpVTs5e6VY5oIbFe-12">
          <mxGeometry x="-1" relative="1" as="geometry">
            <mxPoint x="380" y="380" as="targetPoint" />
          </mxGeometry>
        </mxCell>
        <mxCell id="zmEaGUUcTGZCiLy6iSV4-3" value="positivo" style="edgeStyle=orthogonalEdgeStyle;html=1;align=left;verticalAlign=top;endArrow=open;endSize=8;strokeColor=#ff0000;rounded=0;" edge="1" source="zmEaGUUcTGZCiLy6iSV4-1" parent="1">
          <mxGeometry x="-1" relative="1" as="geometry">
            <mxPoint x="240" y="450" as="targetPoint" />
          </mxGeometry>
        </mxCell>
      </root>
    </mxGraphModel>
  </diagram>
  <diagram id="PKM4-gCJfJqe54goO1Hq" name="ex2">
    <mxGraphModel dx="834" dy="1676" grid="1" gridSize="10" guides="1" tooltips="1" connect="1" arrows="1" fold="1" page="1" pageScale="1" pageWidth="827" pageHeight="1169" math="0" shadow="0">
      <root>
        <mxCell id="0" />
        <mxCell id="1" parent="0" />
        <mxCell id="3tjGS0jUh6fOTT5Fylfo-1" value="" style="ellipse;html=1;shape=startState;fillColor=#000000;strokeColor=#ff0000;" vertex="1" parent="1">
          <mxGeometry x="290" y="70" width="30" height="30" as="geometry" />
        </mxCell>
        <mxCell id="3tjGS0jUh6fOTT5Fylfo-2" value="" style="edgeStyle=orthogonalEdgeStyle;html=1;verticalAlign=bottom;endArrow=open;endSize=8;strokeColor=#ff0000;rounded=0;" edge="1" source="3tjGS0jUh6fOTT5Fylfo-1" parent="1">
          <mxGeometry relative="1" as="geometry">
            <mxPoint x="305" y="140" as="targetPoint" />
          </mxGeometry>
        </mxCell>
        <mxCell id="3tjGS0jUh6fOTT5Fylfo-3" value="Deteta a presença do veículo" style="rounded=1;whiteSpace=wrap;html=1;arcSize=40;fontColor=#000000;fillColor=#ffffc0;strokeColor=#ff0000;" vertex="1" parent="1">
          <mxGeometry x="245" y="140" width="120" height="40" as="geometry" />
        </mxCell>
        <mxCell id="3tjGS0jUh6fOTT5Fylfo-4" value="" style="edgeStyle=orthogonalEdgeStyle;html=1;verticalAlign=bottom;endArrow=open;endSize=8;strokeColor=#ff0000;rounded=0;" edge="1" source="3tjGS0jUh6fOTT5Fylfo-3" parent="1">
          <mxGeometry relative="1" as="geometry">
            <mxPoint x="305" y="220" as="targetPoint" />
          </mxGeometry>
        </mxCell>
        <mxCell id="3tjGS0jUh6fOTT5Fylfo-5" value="" style="rhombus;whiteSpace=wrap;html=1;fontColor=#000000;fillColor=#ffffc0;strokeColor=#ff0000;" vertex="1" parent="1">
          <mxGeometry x="265" y="220" width="80" height="40" as="geometry" />
        </mxCell>
        <mxCell id="3tjGS0jUh6fOTT5Fylfo-6" value="cheio" style="edgeStyle=orthogonalEdgeStyle;html=1;align=left;verticalAlign=bottom;endArrow=open;endSize=8;strokeColor=#ff0000;rounded=0;" edge="1" source="3tjGS0jUh6fOTT5Fylfo-5" parent="1">
          <mxGeometry x="-1" relative="1" as="geometry">
            <mxPoint x="420" y="240" as="targetPoint" />
          </mxGeometry>
        </mxCell>
        <mxCell id="3tjGS0jUh6fOTT5Fylfo-7" value="vago" style="edgeStyle=orthogonalEdgeStyle;html=1;align=left;verticalAlign=top;endArrow=open;endSize=8;strokeColor=#ff0000;rounded=0;" edge="1" source="3tjGS0jUh6fOTT5Fylfo-5" parent="1">
          <mxGeometry x="-1" relative="1" as="geometry">
            <mxPoint x="305" y="320" as="targetPoint" />
          </mxGeometry>
        </mxCell>
        <mxCell id="3tjGS0jUh6fOTT5Fylfo-8" value="Informa que está esgotada" style="rounded=1;whiteSpace=wrap;html=1;arcSize=40;fontColor=#000000;fillColor=#ffffc0;strokeColor=#ff0000;" vertex="1" parent="1">
          <mxGeometry x="420" y="220" width="120" height="40" as="geometry" />
        </mxCell>
        <mxCell id="3tjGS0jUh6fOTT5Fylfo-9" value="" style="edgeStyle=orthogonalEdgeStyle;html=1;verticalAlign=bottom;endArrow=open;endSize=8;strokeColor=#ff0000;rounded=0;" edge="1" source="3tjGS0jUh6fOTT5Fylfo-8" parent="1">
          <mxGeometry relative="1" as="geometry">
            <mxPoint x="480" y="320" as="targetPoint" />
          </mxGeometry>
        </mxCell>
        <mxCell id="3tjGS0jUh6fOTT5Fylfo-10" value="" style="ellipse;html=1;shape=endState;fillColor=#000000;strokeColor=#ff0000;" vertex="1" parent="1">
          <mxGeometry x="465" y="320" width="30" height="30" as="geometry" />
        </mxCell>
        <mxCell id="3tjGS0jUh6fOTT5Fylfo-11" value="Identifica a matrícula do veículo" style="rounded=1;whiteSpace=wrap;html=1;arcSize=40;fontColor=#000000;fillColor=#ffffc0;strokeColor=#ff0000;" vertex="1" parent="1">
          <mxGeometry x="245" y="320" width="120" height="40" as="geometry" />
        </mxCell>
        <mxCell id="3tjGS0jUh6fOTT5Fylfo-12" value="" style="edgeStyle=orthogonalEdgeStyle;html=1;verticalAlign=bottom;endArrow=open;endSize=8;strokeColor=#ff0000;rounded=0;" edge="1" source="3tjGS0jUh6fOTT5Fylfo-11" parent="1">
          <mxGeometry relative="1" as="geometry">
            <mxPoint x="305" y="400" as="targetPoint" />
          </mxGeometry>
        </mxCell>
        <mxCell id="3tjGS0jUh6fOTT5Fylfo-39" value="" style="edgeStyle=orthogonalEdgeStyle;rounded=0;orthogonalLoop=1;jettySize=auto;html=1;strokeColor=#CC0000;" edge="1" parent="1" source="3tjGS0jUh6fOTT5Fylfo-13" target="3tjGS0jUh6fOTT5Fylfo-15">
          <mxGeometry relative="1" as="geometry" />
        </mxCell>
        <mxCell id="3tjGS0jUh6fOTT5Fylfo-13" value="Regista a entrada" style="rounded=1;whiteSpace=wrap;html=1;arcSize=40;fontColor=#000000;fillColor=#ffffc0;strokeColor=#ff0000;" vertex="1" parent="1">
          <mxGeometry x="245" y="400" width="120" height="40" as="geometry" />
        </mxCell>
        <mxCell id="3tjGS0jUh6fOTT5Fylfo-22" style="edgeStyle=orthogonalEdgeStyle;rounded=0;orthogonalLoop=1;jettySize=auto;html=1;strokeColor=#CC0000;" edge="1" parent="1" source="3tjGS0jUh6fOTT5Fylfo-15" target="3tjGS0jUh6fOTT5Fylfo-17">
          <mxGeometry relative="1" as="geometry" />
        </mxCell>
        <mxCell id="3tjGS0jUh6fOTT5Fylfo-15" value="Emite o bilhete" style="rounded=1;whiteSpace=wrap;html=1;arcSize=40;fontColor=#000000;fillColor=#ffffc0;strokeColor=#ff0000;" vertex="1" parent="1">
          <mxGeometry x="245" y="470" width="120" height="40" as="geometry" />
        </mxCell>
        <mxCell id="3tjGS0jUh6fOTT5Fylfo-23" style="edgeStyle=orthogonalEdgeStyle;rounded=0;orthogonalLoop=1;jettySize=auto;html=1;strokeColor=#CC0000;" edge="1" parent="1" source="3tjGS0jUh6fOTT5Fylfo-17">
          <mxGeometry relative="1" as="geometry">
            <mxPoint x="310" y="580" as="targetPoint" />
            <Array as="points">
              <mxPoint x="120" y="540" />
              <mxPoint x="311" y="540" />
            </Array>
          </mxGeometry>
        </mxCell>
        <mxCell id="3tjGS0jUh6fOTT5Fylfo-17" value="Retira o bilhete" style="rounded=1;whiteSpace=wrap;html=1;arcSize=40;fontColor=#000000;fillColor=#ffffc0;strokeColor=#ff0000;" vertex="1" parent="1">
          <mxGeometry x="60" y="470" width="120" height="40" as="geometry" />
        </mxCell>
        <mxCell id="3tjGS0jUh6fOTT5Fylfo-20" value="" style="endArrow=none;html=1;rounded=0;" edge="1" parent="1">
          <mxGeometry width="50" height="50" relative="1" as="geometry">
            <mxPoint x="210" y="700" as="sourcePoint" />
            <mxPoint x="210" y="80" as="targetPoint" />
          </mxGeometry>
        </mxCell>
        <mxCell id="3tjGS0jUh6fOTT5Fylfo-21" value="Condutor" style="text;html=1;strokeColor=none;fillColor=none;align=center;verticalAlign=middle;whiteSpace=wrap;rounded=0;" vertex="1" parent="1">
          <mxGeometry x="90" y="50" width="60" height="30" as="geometry" />
        </mxCell>
        <mxCell id="3tjGS0jUh6fOTT5Fylfo-24" value="Abre a cancela" style="rounded=1;whiteSpace=wrap;html=1;arcSize=40;fontColor=#000000;fillColor=#ffffc0;strokeColor=#ff0000;" vertex="1" parent="1">
          <mxGeometry x="250" y="580" width="120" height="40" as="geometry" />
        </mxCell>
        <mxCell id="3tjGS0jUh6fOTT5Fylfo-25" value="" style="edgeStyle=orthogonalEdgeStyle;html=1;verticalAlign=bottom;endArrow=open;endSize=8;strokeColor=#ff0000;rounded=0;" edge="1" source="3tjGS0jUh6fOTT5Fylfo-24" parent="1">
          <mxGeometry relative="1" as="geometry">
            <mxPoint x="310" y="660" as="targetPoint" />
          </mxGeometry>
        </mxCell>
        <mxCell id="3tjGS0jUh6fOTT5Fylfo-26" value="Deteta o veículo" style="rounded=1;whiteSpace=wrap;html=1;arcSize=40;fontColor=#000000;fillColor=#ffffc0;strokeColor=#ff0000;" vertex="1" parent="1">
          <mxGeometry x="250" y="660" width="120" height="40" as="geometry" />
        </mxCell>
        <mxCell id="3tjGS0jUh6fOTT5Fylfo-27" value="" style="edgeStyle=orthogonalEdgeStyle;html=1;verticalAlign=bottom;endArrow=open;endSize=8;strokeColor=#ff0000;rounded=0;" edge="1" source="3tjGS0jUh6fOTT5Fylfo-26" parent="1">
          <mxGeometry relative="1" as="geometry">
            <mxPoint x="310" y="730" as="targetPoint" />
          </mxGeometry>
        </mxCell>
        <mxCell id="3tjGS0jUh6fOTT5Fylfo-30" style="edgeStyle=orthogonalEdgeStyle;rounded=0;orthogonalLoop=1;jettySize=auto;html=1;exitX=0.25;exitY=0.5;exitDx=0;exitDy=0;exitPerimeter=0;strokeColor=#CC0000;" edge="1" parent="1" source="3tjGS0jUh6fOTT5Fylfo-28" target="3tjGS0jUh6fOTT5Fylfo-33">
          <mxGeometry relative="1" as="geometry">
            <mxPoint x="260" y="820" as="targetPoint" />
          </mxGeometry>
        </mxCell>
        <mxCell id="3tjGS0jUh6fOTT5Fylfo-31" style="edgeStyle=orthogonalEdgeStyle;rounded=0;orthogonalLoop=1;jettySize=auto;html=1;exitX=0.75;exitY=0.5;exitDx=0;exitDy=0;exitPerimeter=0;strokeColor=#CC0000;" edge="1" parent="1" source="3tjGS0jUh6fOTT5Fylfo-28" target="3tjGS0jUh6fOTT5Fylfo-32">
          <mxGeometry relative="1" as="geometry">
            <mxPoint x="360" y="820" as="targetPoint" />
          </mxGeometry>
        </mxCell>
        <mxCell id="3tjGS0jUh6fOTT5Fylfo-28" value="" style="shape=line;html=1;strokeWidth=6;strokeColor=#ff0000;" vertex="1" parent="1">
          <mxGeometry x="210" y="730" width="200" height="10" as="geometry" />
        </mxCell>
        <mxCell id="3tjGS0jUh6fOTT5Fylfo-32" value="fecha a cancela" style="rounded=1;whiteSpace=wrap;html=1;arcSize=40;fontColor=#000000;fillColor=#ffffc0;strokeColor=#ff0000;" vertex="1" parent="1">
          <mxGeometry x="365" y="800" width="120" height="40" as="geometry" />
        </mxCell>
        <mxCell id="3tjGS0jUh6fOTT5Fylfo-33" value="Incrementa o contator de lotação" style="rounded=1;whiteSpace=wrap;html=1;arcSize=40;fontColor=#000000;fillColor=#ffffc0;strokeColor=#ff0000;" vertex="1" parent="1">
          <mxGeometry x="145" y="800" width="120" height="40" as="geometry" />
        </mxCell>
        <mxCell id="3tjGS0jUh6fOTT5Fylfo-34" value="" style="shape=line;html=1;strokeWidth=6;strokeColor=#ff0000;" vertex="1" parent="1">
          <mxGeometry x="210" y="900" width="200" height="10" as="geometry" />
        </mxCell>
        <mxCell id="3tjGS0jUh6fOTT5Fylfo-35" value="" style="edgeStyle=orthogonalEdgeStyle;html=1;verticalAlign=bottom;endArrow=open;endSize=8;strokeColor=#ff0000;rounded=0;" edge="1" source="3tjGS0jUh6fOTT5Fylfo-34" parent="1">
          <mxGeometry relative="1" as="geometry">
            <mxPoint x="310" y="940" as="targetPoint" />
          </mxGeometry>
        </mxCell>
        <mxCell id="3tjGS0jUh6fOTT5Fylfo-36" value="" style="ellipse;html=1;shape=endState;fillColor=#000000;strokeColor=#ff0000;" vertex="1" parent="1">
          <mxGeometry x="295" y="941" width="30" height="30" as="geometry" />
        </mxCell>
        <mxCell id="3tjGS0jUh6fOTT5Fylfo-37" style="edgeStyle=orthogonalEdgeStyle;rounded=0;orthogonalLoop=1;jettySize=auto;html=1;entryX=0.25;entryY=0.5;entryDx=0;entryDy=0;entryPerimeter=0;strokeColor=#CC0000;" edge="1" parent="1" source="3tjGS0jUh6fOTT5Fylfo-33" target="3tjGS0jUh6fOTT5Fylfo-34">
          <mxGeometry relative="1" as="geometry" />
        </mxCell>
        <mxCell id="3tjGS0jUh6fOTT5Fylfo-38" style="edgeStyle=orthogonalEdgeStyle;rounded=0;orthogonalLoop=1;jettySize=auto;html=1;entryX=0.75;entryY=0.5;entryDx=0;entryDy=0;entryPerimeter=0;strokeColor=#CC0000;" edge="1" parent="1" source="3tjGS0jUh6fOTT5Fylfo-32" target="3tjGS0jUh6fOTT5Fylfo-34">
          <mxGeometry relative="1" as="geometry" />
        </mxCell>
        <mxCell id="3tjGS0jUh6fOTT5Fylfo-40" value="Sistema" style="text;html=1;strokeColor=none;fillColor=none;align=center;verticalAlign=middle;whiteSpace=wrap;rounded=0;" vertex="1" parent="1">
          <mxGeometry x="345" y="50" width="60" height="30" as="geometry" />
        </mxCell>
      </root>
    </mxGraphModel>
  </diagram>
  <diagram id="FdT9cEwURW2icmymFS8q" name="ex3">
    <mxGraphModel dx="818" dy="731" grid="1" gridSize="10" guides="1" tooltips="1" connect="1" arrows="1" fold="1" page="1" pageScale="1" pageWidth="827" pageHeight="1169" math="0" shadow="0">
      <root>
        <mxCell id="0" />
        <mxCell id="1" parent="0" />
        <mxCell id="badH-MfwJxT1OwqrO75G-1" value="" style="ellipse;html=1;shape=startState;fillColor=#000000;strokeColor=#ff0000;" vertex="1" parent="1">
          <mxGeometry x="175" y="140" width="30" height="30" as="geometry" />
        </mxCell>
        <mxCell id="badH-MfwJxT1OwqrO75G-2" value="" style="edgeStyle=orthogonalEdgeStyle;html=1;verticalAlign=bottom;endArrow=open;endSize=8;strokeColor=#ff0000;rounded=0;" edge="1" source="badH-MfwJxT1OwqrO75G-1" parent="1">
          <mxGeometry relative="1" as="geometry">
            <mxPoint x="190" y="210" as="targetPoint" />
          </mxGeometry>
        </mxCell>
        <mxCell id="badH-MfwJxT1OwqrO75G-3" value="" style="endArrow=none;html=1;rounded=0;" edge="1" parent="1">
          <mxGeometry width="50" height="50" relative="1" as="geometry">
            <mxPoint x="280" y="700" as="sourcePoint" />
            <mxPoint x="280" y="140" as="targetPoint" />
          </mxGeometry>
        </mxCell>
        <mxCell id="badH-MfwJxT1OwqrO75G-4" value="leitores" style="text;html=1;strokeColor=none;fillColor=none;align=center;verticalAlign=middle;whiteSpace=wrap;rounded=0;" vertex="1" parent="1">
          <mxGeometry x="140" y="100" width="60" height="30" as="geometry" />
        </mxCell>
        <mxCell id="badH-MfwJxT1OwqrO75G-5" value="Apresentar sugestão" style="rounded=1;whiteSpace=wrap;html=1;arcSize=40;fontColor=#000000;fillColor=#ffffc0;strokeColor=#ff0000;" vertex="1" parent="1">
          <mxGeometry x="130" y="210" width="120" height="40" as="geometry" />
        </mxCell>
        <mxCell id="badH-MfwJxT1OwqrO75G-6" value="" style="edgeStyle=orthogonalEdgeStyle;html=1;verticalAlign=bottom;endArrow=open;endSize=8;strokeColor=#ff0000;rounded=0;entryX=0;entryY=0.5;entryDx=0;entryDy=0;" edge="1" source="badH-MfwJxT1OwqrO75G-5" parent="1" target="badH-MfwJxT1OwqrO75G-8">
          <mxGeometry relative="1" as="geometry">
            <mxPoint x="190" y="290" as="targetPoint" />
          </mxGeometry>
        </mxCell>
        <mxCell id="badH-MfwJxT1OwqrO75G-7" value="* obra não disponével" style="text;html=1;strokeColor=none;fillColor=none;align=center;verticalAlign=middle;whiteSpace=wrap;rounded=0;" vertex="1" parent="1">
          <mxGeometry x="120" y="170" width="60" height="30" as="geometry" />
        </mxCell>
        <mxCell id="badH-MfwJxT1OwqrO75G-8" value="envia ao fornecedor uma proposta" style="rounded=1;whiteSpace=wrap;html=1;arcSize=40;fontColor=#000000;fillColor=#ffffc0;strokeColor=#ff0000;" vertex="1" parent="1">
          <mxGeometry x="324" y="210" width="120" height="40" as="geometry" />
        </mxCell>
        <mxCell id="badH-MfwJxT1OwqrO75G-9" value="" style="edgeStyle=orthogonalEdgeStyle;html=1;verticalAlign=bottom;endArrow=open;endSize=8;strokeColor=#ff0000;rounded=0;" edge="1" source="badH-MfwJxT1OwqrO75G-8" parent="1">
          <mxGeometry relative="1" as="geometry">
            <mxPoint x="384" y="290" as="targetPoint" />
            <Array as="points">
              <mxPoint x="384" y="280" />
              <mxPoint x="384" y="280" />
            </Array>
          </mxGeometry>
        </mxCell>
        <mxCell id="badH-MfwJxT1OwqrO75G-11" value="Livreiro" style="text;html=1;strokeColor=none;fillColor=none;align=center;verticalAlign=middle;whiteSpace=wrap;rounded=0;" vertex="1" parent="1">
          <mxGeometry x="354" y="100" width="60" height="30" as="geometry" />
        </mxCell>
        <mxCell id="badH-MfwJxT1OwqrO75G-12" value="Recebe a proposta" style="rounded=1;whiteSpace=wrap;html=1;arcSize=40;fontColor=#000000;fillColor=#ffffc0;strokeColor=#ff0000;" vertex="1" parent="1">
          <mxGeometry x="530" y="210" width="120" height="40" as="geometry" />
        </mxCell>
        <mxCell id="badH-MfwJxT1OwqrO75G-14" value="Elabora um orçamento" style="rounded=1;whiteSpace=wrap;html=1;arcSize=40;fontColor=#000000;fillColor=#ffffc0;strokeColor=#ff0000;" vertex="1" parent="1">
          <mxGeometry x="324" y="360" width="120" height="40" as="geometry" />
        </mxCell>
        <mxCell id="badH-MfwJxT1OwqrO75G-15" value="" style="edgeStyle=orthogonalEdgeStyle;html=1;verticalAlign=bottom;endArrow=open;endSize=8;strokeColor=#ff0000;rounded=0;" edge="1" source="badH-MfwJxT1OwqrO75G-14" parent="1">
          <mxGeometry relative="1" as="geometry">
            <mxPoint x="384" y="430" as="targetPoint" />
          </mxGeometry>
        </mxCell>
        <mxCell id="GkBxdxM6NTVWO-EHvjse-1" value="Fornecedor" style="text;html=1;strokeColor=none;fillColor=none;align=center;verticalAlign=middle;whiteSpace=wrap;rounded=0;" vertex="1" parent="1">
          <mxGeometry x="550" y="100" width="60" height="30" as="geometry" />
        </mxCell>
        <mxCell id="GkBxdxM6NTVWO-EHvjse-2" value="" style="endArrow=none;html=1;rounded=0;" edge="1" parent="1">
          <mxGeometry width="50" height="50" relative="1" as="geometry">
            <mxPoint x="480" y="700" as="sourcePoint" />
            <mxPoint x="480" y="140" as="targetPoint" />
          </mxGeometry>
        </mxCell>
        <mxCell id="GkBxdxM6NTVWO-EHvjse-3" value="&lt;font style=&quot;font-size: 36px;&quot;&gt;Não foi concluído por falta de conhecimento&lt;/font&gt;" style="text;html=1;strokeColor=none;fillColor=none;align=center;verticalAlign=middle;whiteSpace=wrap;rounded=0;" vertex="1" parent="1">
          <mxGeometry x="80" y="430" width="400" height="140" as="geometry" />
        </mxCell>
        <mxCell id="GkBxdxM6NTVWO-EHvjse-4" value="&lt;font style=&quot;font-size: 24px;&quot;&gt;O livreiro é o fornecedor???&lt;/font&gt;" style="text;html=1;strokeColor=none;fillColor=none;align=center;verticalAlign=middle;whiteSpace=wrap;rounded=0;" vertex="1" parent="1">
          <mxGeometry x="390" y="30" width="170" height="70" as="geometry" />
        </mxCell>
      </root>
    </mxGraphModel>
  </diagram>
</mxfile>
